<?xml version="1.0" encoding="UTF-8" standalone="no"?>
<!-- Created with Inkscape (http://www.inkscape.org/) -->

<svg
   xmlns:dc="http://purl.org/dc/elements/1.1/"
   xmlns:cc="http://creativecommons.org/ns#"
   xmlns:rdf="http://www.w3.org/1999/02/22-rdf-syntax-ns#"
   xmlns:svg="http://www.w3.org/2000/svg"
   xmlns="http://www.w3.org/2000/svg"
   xmlns:sodipodi="http://sodipodi.sourceforge.net/DTD/sodipodi-0.dtd"
   xmlns:inkscape="http://www.inkscape.org/namespaces/inkscape"
   width="500"
   height="500"
   viewBox="0 0 500.00001 500.00001"
   id="svg2"
   version="1.1"
   inkscape:version="0.91 r13725"
   sodipodi:docname="redmine.svg">
  <defs
     id="defs4" />
  <sodipodi:namedview
     id="base"
     pagecolor="#ffffff"
     bordercolor="#666666"
     borderopacity="1.0"
     inkscape:pageopacity="0.0"
     inkscape:pageshadow="2"
     inkscape:zoom="0.50292615"
     inkscape:cx="818.60784"
     inkscape:cy="382.29777"
     inkscape:document-units="px"
     inkscape:current-layer="layer1"
     showgrid="false"
     units="px"
     showborder="true"
     inkscape:showpageshadow="true"
     inkscape:window-width="1366"
     inkscape:window-height="705"
     inkscape:window-x="-8"
     inkscape:window-y="-8"
     inkscape:window-maximized="1" />
  <metadata
     id="metadata7">
    <rdf:RDF>
      <cc:Work
         rdf:about="">
        <dc:format>image/svg+xml</dc:format>
        <dc:type
           rdf:resource="http://purl.org/dc/dcmitype/StillImage" />
        <dc:title></dc:title>
      </cc:Work>
    </rdf:RDF>
  </metadata>
  <g
     inkscape:label="Camada 1"
     inkscape:groupmode="layer"
     id="layer1"
     transform="translate(0,-552.36216)">
    <g
       id="g3359"
       transform="translate(1.2023947,40.936391)"
       inkscape:export-xdpi="108.35284"
       inkscape:export-ydpi="108.35284">
      <g
         id="g3355">
        <rect
           style="opacity:1;fill:none;fill-opacity:1;stroke:none;stroke-width:2;stroke-miterlimit:4;stroke-dasharray:none;stroke-opacity:1"
           id="rect3353"
           width="497.12576"
           height="415.12851"
           x="0.23472381"
           y="553.77087" />
        <path
           style="fill:#000000;stroke:none"
           d="m 17.565739,952.32686 0.05376,-16.69437 15.784416,16.75107 c 15.212373,16.14397 16.048136,16.74899 23.06145,16.69437 11.360801,-0.0885 9.994157,-5.1485 -5.564791,-20.60361 -7.063003,-7.01587 -12.841823,-13.2598 -12.841823,-13.87542 0,-0.61562 2.358426,-2.0962 5.240971,-3.2902 11.773058,-4.87655 19.22409,-23.15093 15.324285,-37.58432 C 54.325728,877.81631 41.534433,871.42337 14.00307,871.42337 l -13.61366825,0 0,48.79893 0,48.79893 8.56121585,0 8.5612154,0 0.05376,-16.69437 z m 1.087669,-32.38994 c -0.627829,-0.62781 -1.141502,-8.3329 -1.141502,-17.12243 l 0,-15.98093 7.324103,0 c 4.028258,0 9.085214,1.23352 11.237658,2.74115 12.689913,8.88837 5.548147,31.50372 -9.948664,31.50372 -3.481555,0 -6.843784,-0.51368 -7.471595,-1.14151 z m 110.154302,41.37922 0,-7.70509 -18.83467,0 -18.834678,0 0,-13.69795 0,-13.69795 13.697948,0 13.69794,0 0,-7.70509 0,-7.70509 -13.69794,0 -13.697948,0 0,-11.98571 0,-11.9857 17.978558,0 17.97855,0 0,-7.70509 0,-7.7051 -26.53977,0 -26.53977,0 0,48.79893 0,48.79893 27.39589,0 27.39589,0 z m 54.75777,3.85255 c 10.02215,-5.1204 16.43661,-13.6211 19.65181,-26.04339 6.84861,-26.46031 -1.10561,-55.62284 -17.3247,-63.51751 -4.86595,-2.36851 -11.57793,-3.37567 -25.83644,-3.8769 l -19.26274,-0.6771 0,48.98371 0,48.98373 17.61575,0 c 14.89243,0 18.78149,-0.59558 25.15632,-3.85254 z m -27.36188,-44.94639 0,-33.38874 9.03635,0 c 15.5917,0 21.57818,7.52716 23.01893,28.94299 1.06691,15.85905 -1.51916,26.39647 -8.09102,32.96833 -4.18332,4.18332 -6.20614,4.86617 -14.41522,4.86617 l -9.54904,0 z m 79.15082,19.42792 0.46848,-29.371 10.13737,29.371 10.13737,29.37101 7.2901,0 c 8.2938,0 6.60719,3.07576 20.53521,-37.44848 l 6.69173,-19.46994 0.46947,28.45921 0.46946,28.45921 8.51981,0 8.51982,0 0,-48.79893 0,-48.79893 -10.06231,0 -10.06229,0 -12.48487,35.71305 -12.48485,35.71302 -8.43292,-24.15538 c -4.63811,-13.28547 -10.16302,-29.16371 -12.27761,-35.28498 l -3.84468,-11.12958 -10.54968,-0.50977 -10.54968,-0.50976 0,48.88063 0,48.88063 8.52079,0 8.52077,0 z m 109.19592,-19.42792 0,-48.79893 -9.41733,0 -9.41734,0 0,48.79893 0,48.79893 9.41734,0 9.41733,0 z m 33.92269,17.12033 c -0.29367,-17.42322 -0.44782,-31.67765 -0.34255,-31.6765 0.1053,0.001 6.58914,14.25653 14.40861,31.67861 l 14.21722,31.67649 8.27861,0 8.27861,0 0,-48.79893 0,-48.79893 -8.56122,0 -8.56121,0 -0.0264,28.68008 -0.0264,28.68007 -12.49319,-28.25201 -12.4932,-28.25201 -10.5957,-0.50977 -10.59572,-0.50976 0,48.88063 0,48.88063 9.52322,0 9.52322,0 -0.53394,-31.6786 z m 118.46695,23.97351 0,-7.70509 -18.83467,0 -18.83468,0 0,-13.69795 0,-13.69795 13.69795,0 13.69794,0 0,-7.70509 0,-7.70509 -13.69794,0 -13.69795,0 0,-11.98571 0,-11.9857 17.97856,0 17.97855,0 0,-7.70509 0,-7.7051 -26.53977,0 -26.53977,0 0,48.79893 0,48.79893 27.39589,0 27.39589,0 z M 124.259,821.34026 c 0.61627,-16.2449 1.5949,-32.71281 2.17472,-36.59538 l 1.05421,-7.05916 -9.18552,-2.11236 c -5.05202,-1.1618 -23.013451,-5.50033 -39.914284,-9.64118 -16.900816,-4.14086 -31.274617,-6.94825 -31.941759,-6.23865 -3.925797,4.1756 -18.547514,85.4986 -16.088014,89.47817 0.656885,1.06285 18.32268,1.70476 46.916867,1.70476 l 45.86325,0 z m 344.42435,27.83144 c 2.4595,-3.97957 -12.16222,-85.30257 -16.08802,-89.47817 -0.66714,-0.7096 -15.04094,2.09779 -31.94175,6.23865 -16.90084,4.14085 -34.86227,8.47938 -39.91429,9.64118 l -9.18552,2.11236 1.05421,7.05916 c 0.57982,3.88257 1.55845,20.35048 2.17472,36.59538 l 1.12053,29.5362 45.86325,0 c 28.59419,0 46.25998,-0.64191 46.91687,-1.70476 z M 135.63374,737.01234 c 2.62994,-10.35907 6.79302,-24.12736 9.25128,-30.59618 2.45829,-6.46883 4.46961,-12.45511 4.46961,-13.30284 0,-1.67187 -62.530504,-32.2958 -65.944272,-32.2958 -1.142974,0 -6.876848,11.27532 -12.741931,25.0563 -14.53251,34.14651 -15.788731,37.89344 -13.255245,39.53646 5.252015,3.40601 69.096888,30.98664 71.132518,30.72882 1.43358,-0.18154 4.11584,-7.41954 7.08804,-19.12676 z m 269.68372,4.85777 c 18.84431,-8.15817 35.17831,-15.67064 36.29779,-16.69437 1.9172,-1.75324 -1.82429,-12.02045 -21.11299,-57.93731 -1.48352,-3.5315 -3.73861,-6.42091 -5.01132,-6.42091 -4.314,0 -65.80387,30.55885 -65.80387,32.70278 0,1.17123 2.02853,7.19827 4.50784,13.39344 3.30025,8.24647 12.68086,40.74288 14.24895,49.36133 0.2256,1.23996 5.45207,-0.80181 36.8736,-14.40496 z M 177.52114,652.63839 c 4.66164,-5.02838 12.1741,-11.53896 16.69437,-14.46799 4.52026,-2.92903 8.21865,-6.01395 8.21865,-6.85538 0,-1.21895 -14.02394,-18.06913 -42.92651,-51.57749 -1.44818,-1.67897 -17.58909,8.92551 -29.14699,19.1494 -9.77951,8.65075 -27.75537,30.44103 -26.96615,32.68828 0.32213,0.91722 12.91383,10.95673 27.98157,22.31 l 27.39589,20.64232 5.13673,-6.37332 c 2.8252,-3.50534 8.95079,-10.48746 13.61244,-15.51582 z m 192.72672,-1.02841 c 13.6475,-10.24368 25.07113,-19.29905 25.3858,-20.12305 0.85109,-2.2286 -15.68805,-22.3966 -25.90213,-31.58534 -12.12509,-10.90791 -28.6587,-21.94806 -30.19748,-20.16406 -29.67093,34.39915 -42.92652,50.40161 -42.92652,51.82188 0,0.97584 2.16717,2.89496 4.81596,4.2647 7.33203,3.79154 21.82312,17.421 30.47005,28.65834 6.75342,8.77657 8.11881,9.79128 10.64394,7.91024 1.59319,-1.1868 14.06286,-10.53903 27.71038,-20.78271 z m -77.44128,-56.52693 c 7.79767,-15.72944 13.73835,-29.30968 13.20153,-30.1783 -0.53684,-0.86863 -7.30202,-3.68691 -15.03372,-6.26286 -12.97353,-4.32233 -16.17044,-4.68353 -41.45354,-4.68353 -25.2831,0 -28.48002,0.3612 -41.45355,4.68353 -7.7317,2.57595 -14.48377,5.37305 -15.0046,6.21577 -0.88166,1.42654 22.89859,53.10183 26.35197,57.26374 1.03289,1.24484 11.33056,1.82829 30.38832,1.72175 l 28.82599,-0.16112 z"
           id="path3349"
           inkscape:connector-curvature="0"
           sodipodi:nodetypes="ccsssssssccccccccscsssccccccccccccccccccccccccccsssscccssccssssccccccsscccccccccccsscccccccccccccccccccsccccccccccccccccccccccccccccccccccccccccccccsscssssscssssscsscssssssssssssssssssssssssscsssssssssssscsssssscs" />
      </g>
    </g>
  </g>
</svg>
